<?xml version="1.0" encoding="UTF-8"?>
<svg xmlns="http://www.w3.org/2000/svg" xmlns:xlink="http://www.w3.org/1999/xlink" width="24px" height="24px" viewBox="0 0 24 24" version="1.1">
<g id="surface1">
<path style=" stroke:none;fill-rule:nonzero;fill:rgb(0%,0%,0%);fill-opacity:1;" d="M 12 0 C 6.640625 0 2.28125 4.359375 2.28125 9.71875 C 2.28125 11.929688 3.003906 14.011719 4.375 15.742188 C 6.152344 17.980469 11.3125 23.292969 11.535156 23.519531 L 12 24 L 12.464844 23.519531 C 12.6875 23.292969 17.851562 17.980469 19.625 15.738281 C 20.996094 14.011719 21.71875 11.929688 21.71875 9.71875 C 21.71875 4.359375 17.359375 0 12 0 Z M 18.605469 14.929688 C 17.175781 16.734375 13.335938 20.742188 12 22.128906 C 10.664062 20.742188 6.824219 16.734375 5.398438 14.933594 C 4.210938 13.4375 3.582031 11.632812 3.582031 9.71875 C 3.582031 5.078125 7.359375 1.300781 12 1.300781 C 16.640625 1.300781 20.417969 5.078125 20.417969 9.71875 C 20.417969 11.632812 19.789062 13.4375 18.605469 14.929688 Z M 18.605469 14.929688 "/>
<path style=" stroke:none;fill-rule:nonzero;fill:rgb(0%,0%,0%);fill-opacity:1;" d="M 12 3.859375 C 8.828125 3.859375 6.246094 6.4375 6.246094 9.609375 C 6.246094 12.785156 8.828125 15.363281 12 15.363281 C 15.171875 15.363281 17.753906 12.785156 17.753906 9.609375 C 17.753906 6.4375 15.171875 3.859375 12 3.859375 Z M 12 14.0625 C 9.546875 14.0625 7.550781 12.066406 7.550781 9.609375 C 7.550781 7.15625 9.546875 5.160156 12 5.160156 C 14.453125 5.160156 16.449219 7.15625 16.449219 9.609375 C 16.449219 12.066406 14.453125 14.0625 12 14.0625 Z M 12 14.0625 "/>
</g>
</svg>
