<?xml version="1.0" encoding="UTF-8"?>
<svg xmlns="http://www.w3.org/2000/svg" xmlns:xlink="http://www.w3.org/1999/xlink" width="15px" height="15px" viewBox="0 0 15 15" version="1.1">
<g id="surface1">
<path style=" stroke:none;fill-rule:nonzero;fill:rgb(0%,0%,0%);fill-opacity:1;" d="M 7.5 0 C 4.148438 0 1.425781 2.726562 1.425781 6.074219 C 1.425781 7.457031 1.878906 8.757812 2.734375 9.839844 C 3.84375 11.238281 7.070312 14.558594 7.210938 14.699219 L 7.5 15 L 7.789062 14.699219 C 7.929688 14.558594 11.15625 11.238281 12.265625 9.835938 C 13.121094 8.757812 13.574219 7.457031 13.574219 6.074219 C 13.574219 2.726562 10.851562 0 7.5 0 Z M 11.628906 9.332031 C 10.734375 10.460938 8.335938 12.964844 7.5 13.832031 C 6.664062 12.964844 4.265625 10.460938 3.375 9.332031 C 2.632812 8.398438 2.238281 7.269531 2.238281 6.074219 C 2.238281 3.171875 4.601562 0.8125 7.5 0.8125 C 10.398438 0.8125 12.761719 3.171875 12.761719 6.074219 C 12.761719 7.269531 12.367188 8.398438 11.628906 9.332031 Z M 11.628906 9.332031 "/>
<path style=" stroke:none;fill-rule:nonzero;fill:rgb(0%,0%,0%);fill-opacity:1;" d="M 7.5 2.410156 C 5.515625 2.410156 3.902344 4.023438 3.902344 6.003906 C 3.902344 7.992188 5.515625 9.601562 7.5 9.601562 C 9.480469 9.601562 11.097656 7.992188 11.097656 6.003906 C 11.097656 4.023438 9.480469 2.410156 7.5 2.410156 Z M 7.5 8.789062 C 5.964844 8.789062 4.71875 7.542969 4.71875 6.003906 C 4.71875 4.472656 5.964844 3.226562 7.5 3.226562 C 9.03125 3.226562 10.28125 4.472656 10.28125 6.003906 C 10.28125 7.542969 9.03125 8.789062 7.5 8.789062 Z M 7.5 8.789062 "/>
</g>
</svg>
